<svg width="290" height="185" viewBox="0 0 290 185" fill="none" xmlns="http://www.w3.org/2000/svg">
<g clip-path="url(#clip0_575_6715)">
<rect width="290" height="185" fill="#CDE9E4"/>
<ellipse cx="71.0127" cy="67.34" rx="55.3974" ry="55.13" fill="#FFF9E6"/>
<path d="M82.5329 23.1007C82.5329 23.1007 81.0024 89.4355 85.6022 131.432H176.918C176.918 131.432 161.572 52.2184 162.333 23.1007H82.5329Z" fill="#164959"/>
<path d="M93.0708 40.114V37.9007H152.186L149.78 40.4907L93.0708 40.114Z" fill="#A9CBDA"/>
<path d="M153.581 44.1003L153.7 46.3104L94.67 49.4672L96.9327 46.7525L153.581 44.1003Z" fill="#A9CBDA"/>
<path d="M138.548 81.3926C147.708 81.3926 155.133 74.7427 155.133 66.5396C155.133 58.3365 147.708 51.6866 138.548 51.6866C129.388 51.6866 121.963 58.3365 121.963 66.5396C121.963 74.7427 129.388 81.3926 138.548 81.3926Z" fill="#D9E0A2"/>
<path d="M141.779 56.1997L129.632 75.5416C129.632 75.5416 122.141 68.5544 127.259 60.6564C132.377 52.7585 141.779 56.1997 141.779 56.1997Z" fill="#107393"/>
<path d="M145.173 57.2713L133.025 77.266C133.025 77.266 141.78 82.6173 148.412 73.8731C155.044 65.129 145.173 57.2713 145.173 57.2713Z" fill="#107393"/>
<path d="M133.025 58.295V62.3246L128.045 62.1393C128.521 61.1595 129.218 60.3027 130.082 59.6357C130.946 58.9688 131.953 58.51 133.025 58.295Z" fill="#A9CBDA"/>
<path d="M94.3076 72.6161V77.2662L117.396 74.9452V72.6161H94.3076Z" fill="#A9CBDA"/>
<path d="M94.3076 83.4556V86.2119H142.759L94.3076 83.4556Z" fill="#A9CBDA"/>
<path d="M94.3076 92.1917V96.3986L162.438 94.2952V88.7988L94.3076 92.1917Z" fill="#A9CBDA"/>
<path d="M92.356 101.742V106.11L166.171 103.926V99.7996L92.356 101.742Z" fill="#A9CBDA"/>
<path d="M93.0278 109.833V113.226L166.171 111.534V108.536L93.0278 109.833Z" fill="#A9CBDA"/>
<path d="M134.629 115.491V125.524H171.865L168.609 113.226L134.629 115.491Z" fill="#A9CBDA"/>
<path d="M40.1487 45.713C40.1487 45.713 38.6181 112.048 43.2179 154.044H134.534C134.534 154.044 119.187 74.8306 119.949 45.713H40.1487Z" fill="#164959"/>
<path d="M42.7512 43.0807C42.7512 43.0807 41.2206 109.415 45.8204 151.412H137.136C137.136 151.412 121.79 72.1984 122.551 43.0807H42.7512Z" fill="#105F79"/>
<path d="M55.3335 56.7708L53.2461 82.3449H93.2433L95.4874 61.6087L55.3335 56.7708Z" fill="#A9CBDA"/>
<path d="M93.2436 78.275V82.3046L88.2632 82.1193C88.739 81.1395 89.4362 80.2826 90.3003 79.6157C91.1643 78.9488 92.1717 78.4899 93.2436 78.275Z" fill="#A9CBDA"/>
<path d="M91.6343 104.831L91.524 100.022L55.5243 103.241L55.5796 105.65L91.6343 104.831Z" fill="#A9CBDA"/>
<path d="M53.6606 92.2907V95.0469H102.112L53.6606 92.2907Z" fill="#A9CBDA"/>
<path d="M58.1221 145.571V142.981H106.455L58.1221 145.571Z" fill="#A9CBDA"/>
<path d="M52.917 129.354V133.561L121.047 131.457V125.961L52.917 129.354Z" fill="#A9CBDA"/>
<path d="M52.1733 110.883V115.251L125.989 113.067V108.941L52.1733 110.883Z" fill="#A9CBDA"/>
<path d="M53.2891 118.008V121.401L126.432 119.709V116.711L53.2891 118.008Z" fill="#A9CBDA"/>
<path d="M94.8472 135.471V145.504H132.083L128.827 133.206L94.8472 135.471Z" fill="#A9CBDA"/>
<path d="M87.6125 101.373C96.7723 101.373 104.198 94.7226 104.198 86.5196C104.198 78.3165 96.7723 71.6666 87.6125 71.6666C78.4528 71.6666 71.0273 78.3165 71.0273 86.5196C71.0273 94.7226 78.4528 101.373 87.6125 101.373Z" fill="#D9E0A2"/>
<path d="M90.8437 76.1797L78.6964 95.5216C78.6964 95.5216 71.2055 88.5344 76.3236 80.6364C81.4417 72.7384 90.8437 76.1797 90.8437 76.1797Z" fill="#107393"/>
<path d="M94.2367 77.2513L82.0894 97.2461C82.0894 97.2461 90.8435 102.597 97.476 93.8532C104.108 85.109 94.2367 77.2513 94.2367 77.2513Z" fill="#107393"/>
<path d="M109.674 60.3553C109.674 60.3553 108.143 126.69 112.743 168.686H204.059C204.059 168.686 188.713 89.473 189.474 60.3553H109.674Z" fill="#164959"/>
<path d="M112.277 57.723C112.277 57.723 110.746 124.058 115.346 166.054H206.662C206.662 166.054 191.315 86.8407 192.077 57.723H112.277Z" fill="#107393"/>
<path d="M195.018 160.09L196.155 150.121L159.157 145.941L160.998 158.526L195.018 160.09Z" fill="#A9CBDA"/>
<path d="M122.771 76.2511V96.9873H162.769L161.141 72.7212L122.771 76.2511Z" fill="#A9CBDA"/>
<path d="M174.916 91.8936L162.769 111.888C162.769 111.888 171.523 117.24 178.156 108.495C184.788 99.7513 174.916 91.8936 174.916 91.8936Z" fill="#107393"/>
<path d="M162.769 92.9174V96.9469L157.789 96.7616C158.264 95.7818 158.962 94.925 159.826 94.2581C160.69 93.5911 161.697 93.1323 162.769 92.9174Z" fill="#A9CBDA"/>
<path d="M124.051 107.238V111.889L147.139 109.567V107.238H124.051Z" fill="#A9CBDA"/>
<path d="M124.051 118.078V120.834H172.503L124.051 118.078Z" fill="#A9CBDA"/>
<path d="M124.051 126.814V131.021L192.182 128.917V123.421L124.051 126.814Z" fill="#A9CBDA"/>
<path d="M122.071 136.541V140.02L172.635 138.285V135.21L122.071 136.541Z" fill="#A9CBDA"/>
<path d="M257.545 124.467L243.756 106.061L225.796 97.2146L182.065 96.1646L177.503 89.0998L186.513 82.9427L233.55 78.6375L265.974 85.2161L279.705 81.6805L281.625 121.972L257.545 124.467Z" fill="#FFCF8D"/>
<path d="M247.185 85.3036L275.031 96.3608L279.51 72.8366L247.153 63.5021L200.725 67.7376L190.436 73.5277L194.334 81.8372L247.185 85.3036Z" fill="#FFD8A3"/>
<path d="M247.1 128.961L229.898 116.484L219.464 106.016L186.83 95.1801L184.867 89.2611L192.605 86.3834L218.865 90.9623L248.123 107.613L278.034 121.324L274.742 136.361L247.1 128.961Z" fill="#FFCF8D"/>
<path d="M276.258 89.971L260.477 71.2625L225.638 62.409L191.212 84.2702L181.139 73.2637L226.242 41.4909L277.434 47.8079L316.608 72.8684L358.614 153.731L414.903 218.01L349.445 266.67L259.171 116.485L276.258 89.971Z" fill="#FFE4BF"/>
<path d="M181.126 111.237L233.597 113.179L228.849 124.036L170.173 127.477L181.126 111.237Z" fill="#4A5613"/>
<path d="M158.876 82.8384L169.681 66.9383L184.647 110.139C180.361 115.614 171.598 126.722 170.833 127.359C170.068 127.996 162.543 97.944 158.876 82.8384Z" fill="#697F01"/>
<path d="M169.681 66.9382L206.208 69.6422L217.288 74.4404L233.352 113.275L180.74 114.903L169.681 66.9382Z" fill="#D9E0A2"/>
<path d="M220.244 100.133L251.472 76.9371L232.929 71.1259L201.477 99.4709L220.244 100.133Z" fill="#4A5613"/>
<path d="M229.317 53.4214C219.78 60.8587 200.194 76.4399 198.147 79.2659L201.647 99.5448L231.964 73.3313L229.317 53.4214Z" fill="#537E29"/>
<path d="M245.169 60.2867L229.317 53.4216L231.964 73.3314L251.301 76.8635L245.169 60.2867Z" fill="#C7CC87"/>
<path d="M277.021 111.341L226.249 100.263L193.754 81.5636L184.798 84.7266L184.403 94.361L206.647 117.349L261.619 151.276L322.115 194.621L291.773 154.698L277.021 111.341Z" fill="#FFE4BF"/>
</g>
<defs>
<clipPath id="clip0_575_6715">
<rect width="290" height="185" fill="white"/>
</clipPath>
</defs>
</svg>
