<svg width="290" height="185" viewBox="0 0 290 185" fill="none" xmlns="http://www.w3.org/2000/svg">
<g clip-path="url(#clip0_575_5504)">
<rect width="290" height="185" fill="white"/>
<path d="M809 518C628.893 567.888 371.515 688.258 0.500266 501.5C-221.531 368.571 -9.20752 57.7571 0.500278 -6.49997C0.500278 -6.49997 729 -58 794.5 -6.50005L809 518Z" fill="#EAF3BF"/>
<path d="M777.423 537.659C678.414 648.993 393.44 655.66 130.938 502.536C-30.4346 382.941 -19.9151 294.241 0.179857 224.087C20.2748 153.934 493.653 133.657 738.851 54.5398C984.049 -24.5772 954.186 54.0696 1032.48 124.137C1110.78 194.204 1072.44 238.472 974.266 300.585C876.087 362.698 876.431 426.325 777.423 537.659Z" fill="#A8BE42"/>
<path d="M629.56 667.955C507.821 753.374 228.954 693.849 8.38337 484.014C-121.407 330.238 -90.949 246.349 -55.3992 182.727C-19.8494 119.106 115.245 194.096 371.917 173.896C628.588 153.697 911.833 238.254 972.062 324.584C1032.29 410.914 984.89 445.116 875.18 482.824C765.469 520.532 751.299 582.536 629.56 667.955Z" fill="#697F01"/>
<path opacity="0.5" d="M226.051 -24.0499L130.128 20.3501V95.332L226.051 95.8301V-24.0499Z" fill="#9CCCDF"/>
<path opacity="0.5" d="M130.128 3.33008L37.1797 44.5649V89.9189L130.128 90.2801V3.33008Z" fill="#8FB3C4"/>
<path opacity="0.5" d="M70.6409 3.33008L-21.936 44.5649V89.9189L70.6409 90.2801V3.33008Z" fill="#9CCCDF"/>
<path d="M292.186 136.6L277.871 118.596L259.663 110.267L215.92 110.468L211.156 103.537L219.985 97.1247L266.878 91.476L299.478 97.1247L313.102 93.1978L316.184 133.417L292.186 136.6Z" fill="#FFCF8D"/>
<path d="M3.18582 62.1773L-8.41082 89.2605L7.52228 93.8855L17.189 109.752L-6.36593 124.78L-6.36596 138.286L23.7766 126.217L34.1869 109.752L28.7248 67.2021L3.18582 62.1773Z" fill="#FFCF8D"/>
<path d="M19.1731 56.2569L7.5765 83.3401L23.5096 87.9651L33.1763 103.832L9.62139 118.86L9.62136 132.365L39.7639 120.297L50.1742 103.832L47.2179 72.5199L19.1731 56.2569Z" fill="#FFDBA9"/>
<path d="M271.912 89.8313L300.066 100.088L303.865 76.445L271.252 68.0397L224.965 73.6012L214.847 79.6831L218.984 87.8777L271.912 89.8313Z" fill="#FFDBA9"/>
<path d="M290.972 151.903L270.349 146.653L256.762 140.774L222.416 142.737L218.39 137.962L224.506 132.437L250.603 127.012L283.977 131.696L316.863 133.408L319.402 148.59L290.972 151.903Z" fill="#FFCF8D"/>
<path d="M234.06 158.339L33.6592 156.354L37.6144 38.2533L239.964 45.3207L234.06 158.339Z" fill="#164E60"/>
<path d="M46.3101 142.48L46.3101 51.4351L226.827 54.5898L226.827 147.31L46.3101 142.48Z" fill="#D9E0A2"/>
<mask id="mask0_575_5504" style="mask-type:alpha" maskUnits="userSpaceOnUse" x="46" y="51" width="181" height="97">
<path d="M46.3101 142.48L46.3101 51.4352L226.827 54.5898L226.827 147.31L46.3101 142.48Z" fill="#D9E0A2"/>
</mask>
<g mask="url(#mask0_575_5504)">
<rect width="184.038" height="99.53" transform="translate(46.4741 47.73)" fill="#CDE9E4"/>
<path d="M230.403 148L70.6406 148C70.6406 148 70.0445 136.739 118.16 132.086C202.548 123.926 227.64 97.2182 230.403 109.282L230.403 148Z" fill="#A8BE42"/>
<path d="M234.119 149.11L37.1601 149.11C36.9399 143.129 37.3954 109.325 37.1601 102.932C37.1601 102.932 71.6389 123.395 119.59 129.5C203.69 140.207 234.119 119.717 234.119 132.09L234.119 149.11Z" fill="#697F01"/>
<path d="M149.45 124.788H132.943L137.918 71.4507H144.513L149.45 124.788Z" fill="#9CCCDF"/>
<path d="M152.578 109.638L118.207 120.523V132.495L152.578 132.591V109.638Z" fill="#9CCCDF"/>
<path d="M126.473 116.138L101.239 124.037V132.725L126.473 132.794V116.138Z" fill="#8FB3C4"/>
<path d="M110.375 116.138L85.1406 124.037V132.725L110.375 132.794V116.138Z" fill="#9CCCDF"/>
<path d="M130.866 64.5455C135.488 64.5455 139.235 61.0371 139.235 56.7093C139.235 52.3814 135.488 48.873 130.866 48.873C126.244 48.873 122.497 52.3814 122.497 56.7093C122.497 61.0371 126.244 64.5455 130.866 64.5455Z" fill="#9CCCDF"/>
<path d="M142.053 68.5138C144.03 68.5138 145.633 67.0162 145.633 65.1689C145.633 63.3215 144.03 61.8239 142.053 61.8239C140.076 61.8239 138.474 63.3215 138.474 65.1689C138.474 67.0162 140.076 68.5138 142.053 68.5138Z" fill="#9CCCDF"/>
<path d="M115.478 66.0983C123.593 66.0983 130.172 59.9384 130.172 52.3397C130.172 44.7411 123.593 38.5812 115.478 38.5812C107.363 38.5812 100.784 44.7411 100.784 52.3397C100.784 59.9384 107.363 66.0983 115.478 66.0983Z" fill="#9CCCDF"/>
<path d="M94.8837 61.6926C103.148 61.6926 109.847 55.4195 109.847 47.6813C109.847 39.943 103.148 33.6699 94.8837 33.6699C86.6194 33.6699 79.9199 39.943 79.9199 47.6813C79.9199 55.4195 86.6194 61.6926 94.8837 61.6926Z" fill="#9CCCDF"/>
<path d="M102.559 69.6733C108.096 69.6733 112.586 65.4697 112.586 60.2843C112.586 55.0989 108.096 50.8953 102.559 50.8953C97.0206 50.8953 92.5312 55.0989 92.5312 60.2843C92.5312 65.4697 97.0206 69.6733 102.559 69.6733Z" fill="#9CCCDF"/>
<path d="M86.8809 118.169L64.6919 125.105V132.733L86.8809 132.794V118.169Z" fill="#8FB3C4"/>
</g>
<path d="M209.32 112.11C216.507 112.11 222.333 106.395 222.333 99.3449C222.333 92.295 216.507 86.58 209.32 86.58C202.134 86.58 196.308 92.295 196.308 99.3449C196.308 106.395 202.134 112.11 209.32 112.11Z" fill="#B7B7B7"/>
<path d="M218.603 99.3451C218.603 104.309 214.479 108.39 209.321 108.39C204.163 108.39 200.039 104.309 200.039 99.3451C200.039 94.3809 204.163 90.3 209.321 90.3C214.479 90.3 218.603 94.3809 218.603 99.3451Z" fill="#DBDBDB" stroke="white" stroke-width="3"/>
<path d="M292.472 108.236L271.448 113.095L254.954 108.346L223.465 92.5787L214.604 95.9966L214.488 105.638L237.386 127.98L270.997 163.553L355.037 201.919L323.555 162.88L292.472 108.236Z" fill="#FFE4BF"/>
<path d="M296.568 86.2492L280.254 67.9996L247.55 58.7221L219.425 48.7913L219.635 35.633L252.702 37.3419L296.527 44.0698L347.162 68.8215L391.486 148.449L449.608 211.092L385.582 261.604L291.008 114.063L296.568 86.2492Z" fill="#FFE4BF"/>
<path d="M16.3964 107.034L32.688 133.43L42.0632 147.164L66.3169 171.241L65.6918 180.528L56.5808 183.718L28.627 169.686L-15.0394 149.978L-39.8974 123.493L-29.9209 101.162L16.3964 107.034Z" fill="#FFE4BF"/>
<path d="M22.0372 64.1276L38.7892 46.7446L70.9878 39.1673L103.525 40.6974L103.987 27.5459L67.0718 17.55L24.2128 22.0071L-26.1665 44.1123L-73.2002 121.345L-132.761 180.904L-73.2002 234.652L17.3122 106.044L22.0372 64.1276Z" fill="#FFE4BF"/>
</g>
<defs>
<clipPath id="clip0_575_5504">
<rect width="290" height="185" fill="white"/>
</clipPath>
</defs>
</svg>
